<svg width="172" height="223" viewBox="0 0 172 223" fill="none" xmlns="http://www.w3.org/2000/svg">
<path fill-rule="evenodd" clip-rule="evenodd" d="M135.011 223C139.429 223 143.011 219.418 143.011 215C143.011 214.896 143.009 214.792 143.005 214.689L151.997 63.8308C152.259 59.4204 148.897 55.6319 144.487 55.369C140.076 55.1061 136.288 58.4684 136.025 62.8789L127.435 207L43.5405 207L34.9862 62.5273C34.725 58.1168 30.9379 54.753 26.5273 55.0142C22.1168 55.2753 18.753 59.0625 19.0142 63.473L27.9585 214.532C28.24 219.288 32.1788 223 36.9427 223H135.011Z" fill="#333333"/>
<path d="M8 36H164" stroke="#333333" stroke-width="16" stroke-linecap="round"/>
<path d="M26 8H146" stroke="#333333" stroke-width="16" stroke-linecap="round"/>
<circle cx="85.5" cy="138.5" r="31.5" fill="#333333"/>
</svg>
